# xmcd
#
# Track frame offsets: 
#        150
#        20540
#        40448
#        54210
#        72065
#        90570
#        105018
#        123387
#        140035
#        156822
#        170944
#        185196
#        199792
#        215096
#        230380
#        247682
#        268062
#        288587
#
# Disc length: 4034 seconds
#
# Revision: 0
# Processed by: cddbd v1.5.2PL0 Copyright (c) Steve Scherf et al.
# Submitted via: ExactAudioCopyFreeDBPlugin 1.0
#
DISCID=070fc012
DTITLE=Various Artist - Featuring Hot Chart
DYEAR=2010
DGENRE=Pop
TTITLE0=Yolanda Be Cool and Dcup - We No Speak Americano (Original Mix)
TTITLE1=Eminem feat. Rihanna - Love The Way You Lie
TTITLE2=B.o.B. feat. Hayley Williams - Airplanes
TTITLE3=Katy Perry feat. Snoop Dogg - California Gurls
TTITLE4=Mark Ronson and The Business INTL - Bang Bang Bang
TTITLE5=Professor Green feat. Lilly Allen - Just Be Good to Green
TTITLE6=Enrique Iglesias feat. Pitbull - I Like It
TTITLE7=Kelly Rowland feat. David Guetta - Commander
TTITLE8=Usher feat. Pitbull - DJ Got Us Fallin In Love
TTITLE9=Edward Maya feat. Vika Jigulina - Stereo Love
TTITLE10=David Guetta and Chris Willis feat. Fergie and LMFAO - Gettin' Ov
TTITLE10=er You
TTITLE11=3Oh!3 feat. Ke$ha - My First Kiss
TTITLE12=Justin Bieber and Sean Kingston - Eenie Meenie
TTITLE13=Shakira feat. Freshlyground - Waka Waka (Time for Africa)
TTITLE14=Alexandra Burke feat. Pitbull - All Night Long
TTITLE15=B.o.B. feat. Bruno Mars - Nothin On You
TTITLE16=Ushwer feat. Will.i.Am - Omg
TTITLE17=N Dubz feat. Bodyrox - We Dance On
EXTD=
EXTT0=
EXTT1=
EXTT2=
EXTT3=
EXTT4=
EXTT5=
EXTT6=
EXTT7=
EXTT8=
EXTT9=
EXTT10=
EXTT11=
EXTT12=
EXTT13=
EXTT14=
EXTT15=
EXTT16=
EXTT17=
PLAYORDER=
